<svg xmlns="http://www.w3.org/2000/svg" width="120" height="120" viewBox="0 0 120 120"><defs><style>.cls-1{fill:#df77ff;fill-rule:evenodd}</style></defs><path id="Прямоугольник_скругл._углы_13" data-name="Прямоугольник, скругл. углы 13" class="cls-1" d="M1420 480a60 60 0 1 1-60 60 60 60 0 0 1 60-60zm0 5a55 55 0 1 1-55 55 55 55 0 0 1 55-55zm-20.52 57.3a2.506 2.506 0 0 1 3.54 0l13.68 13.678a2.5 2.5 0 0 1-3.54 3.535l-13.68-13.677a2.512 2.512 0 0 1 0-3.536zm13.68 13.678l31.82-31.82a2.5 2.5 0 0 1 3.54 3.536l-31.82 31.819a2.5 2.5 0 0 1-3.54-3.532z" transform="translate(-1360 -480)"/></svg>