<svg xmlns="http://www.w3.org/2000/svg" width="80" height="80" viewBox="0 0 80 80"><defs><style>.cls-1{fill:#4a90e2;fill-rule:evenodd}</style></defs><path id="Forma_1" data-name="Forma 1" class="cls-1" d="M477.4 1638.91a6.385 6.385 0 1 0-6.386-6.38 6.389 6.389 0 0 0 6.386 6.38zm0-10.22a3.835 3.835 0 1 1-3.833 3.84 3.84 3.84 0 0 1 3.833-3.84zm0 12.78a10.6 10.6 0 0 0-4.97 1.24 1.276 1.276 0 1 0 1.206 2.25 7.989 7.989 0 0 1 11.646 5.77H477.4a1.275 1.275 0 1 0 0 2.55h9.261a1.276 1.276 0 0 0 1.276-1.28 10.543 10.543 0 0 0-10.537-10.53zm-34.685 9.26h-8a7.988 7.988 0 0 1 11.645-5.77 1.277 1.277 0 1 0 1.207-2.25 10.546 10.546 0 0 0-15.507 9.29 1.276 1.276 0 0 0 1.276 1.28h9.375a1.275 1.275 0 1 0 .003-2.55zm-.113-11.82a6.385 6.385 0 1 0-6.386-6.38 6.388 6.388 0 0 0 6.384 6.38zm0-10.22a3.835 3.835 0 1 1-3.833 3.84 3.839 3.839 0 0 1 3.831-3.84zm17.4 10.68a8.22 8.22 0 1 0-8.222-8.22 8.225 8.225 0 0 0 8.22 8.22zm0-13.89a5.67 5.67 0 1 1-5.669 5.67 5.68 5.68 0 0 1 5.667-5.67zm0 16.45a13.88 13.88 0 0 0-13.866 13.86 1.277 1.277 0 0 0 1.277 1.28h25.178a1.277 1.277 0 0 0 1.277-1.28A13.881 13.881 0 0 0 460 1641.93zm-11.241 12.59a11.313 11.313 0 0 1 22.482 0h-22.484zm49.964-15.8h-3.1a35.689 35.689 0 0 0-34.347-34.34v-3.1a1.277 1.277 0 1 0-2.554 0v3.1a35.689 35.689 0 0 0-34.347 34.34h-3.1a1.28 1.28 0 0 0 0 2.56h3.1a35.689 35.689 0 0 0 34.347 34.34v3.1a1.277 1.277 0 1 0 2.554 0v-3.1a35.689 35.689 0 0 0 34.347-34.34h3.1a1.28 1.28 0 0 0-.002-2.56zm-37.446 34.35v-3.05a1.277 1.277 0 1 0-2.554 0v3.05a33.141 33.141 0 0 1-31.792-31.79h3.047a1.28 1.28 0 0 0 0-2.56h-3.047a33.141 33.141 0 0 1 31.792-31.79v3.05a1.277 1.277 0 0 0 2.554 0v-3.05a33.141 33.141 0 0 1 31.792 31.79h-3.048a1.28 1.28 0 0 0 0 2.56h3.048a33.141 33.141 0 0 1-31.794 31.79z" transform="translate(-420 -1600)"/></svg>