<svg xmlns="http://www.w3.org/2000/svg" width="80" height="53" viewBox="0 0 80 53"><defs><style>.cls-1{fill:#4a90e2;fill-rule:evenodd}</style></defs><path class="cls-1" d="M17.91 42.4a2.65 2.65 0 1 0 2.7 2.65 2.676 2.676 0 0 0-2.7-2.65zm45.93 0a2.65 2.65 0 1 0 2.69 2.65 2.685 2.685 0 0 0-2.69-2.65zm-4.04-9.28h-2.7a1.325 1.325 0 1 0 0 2.65h2.7a1.325 1.325 0 1 0 0-2.65zm18.45-2.78L73 28.22l-3.37-13.25a3.9 3.9 0 0 0-3.91-3.05h-7.07a61.491 61.491 0 0 0 2.49-10.46A3.11 3.11 0 0 0 60.88.4 1.537 1.537 0 0 0 59.8 0H11.18a1.09 1.09 0 0 0-1.21 1.06L9.19 5.3H4.31a1.325 1.325 0 1 0 0 2.65h4.4l-.49 2.65H3.37a1.325 1.325 0 1 0 0 2.65h4.37l-.49 2.65H2.42a1.325 1.325 0 1 0 0 2.65h4.35l-.49 2.65H1.35a1.325 1.325 0 1 0 0 2.65H5.8l-.68 3.71a.851.851 0 0 0-.05.26L1.89 44.78a1.007 1.007 0 0 0 .13 1.06 1.224 1.224 0 0 0 1.08.53h6.85a8.1 8.1 0 0 0 15.93 0h29.99a8.1 8.1 0 0 0 15.93 0h5.51A2.676 2.676 0 0 0 80 43.72V32.86a2.6 2.6 0 0 0-1.75-2.52zM23.43 21.2H9.04l.48-2.65h14.99a1.339 1.339 0 0 0 1.35-1.33 1.263 1.263 0 0 0-1.35-1.32H10l.48-2.65h14.97a1.325 1.325 0 1 0 0-2.65h-14.5l.48-2.65H26.4a1.325 1.325 0 1 0 0-2.65H11.91l.48-2.65h45.79a61.376 61.376 0 0 1-3.14 11.38c-2.21 5.53-5.88 11.57-11.47 12.38-.04 0-.08.01-.11.01l-.24.03-.37.03c-.04 0-.09.01-.13.01-.14 0-.28.01-.43.01H8.08l.48-2.65h15.01a1.234 1.234 0 0 0 1.21-1.33 1.263 1.263 0 0 0-1.35-1.32zm-5.52 29.15a5.3 5.3 0 1 1 5.39-5.3 5.359 5.359 0 0 1-5.39 5.3zm45.93 0a5.3 5.3 0 1 1 5.39-5.3 5.367 5.367 0 0 1-5.39 5.3zm13.47-6.63H71.8a8.068 8.068 0 0 0-7.96-6.62h-.14a8.051 8.051 0 0 0-7.94 6.62H25.88a8.017 8.017 0 0 0-4.65-5.91 1.111 1.111 0 0 0-.16-.07c-.03-.02-.07-.03-.1-.05-.09-.03-.18-.07-.27-.1a.637.637 0 0 0-.07-.02c-.1-.04-.2-.07-.3-.1a.142.142 0 0 0-.06-.02l-.31-.09a.637.637 0 0 1-.07-.02c-.1-.02-.21-.05-.31-.07-.03 0-.05-.01-.08-.01l-.3-.06c-.03 0-.06-.01-.09-.01-.1-.02-.2-.03-.3-.04-.03 0-.07-.01-.1-.01-.1-.01-.2-.02-.3-.02a.34.34 0 0 0-.1-.01c-.13-.01-.26-.01-.4-.01s-.26 0-.4.01a.375.375 0 0 0-.1.01c-.1 0-.2.01-.3.02-.03 0-.06.01-.1.01a2.886 2.886 0 0 0-.29.04c-.03 0-.06.01-.09.01-.11.02-.21.04-.31.06-.02 0-.05.01-.08.01-.1.02-.2.05-.3.07a.637.637 0 0 0-.07.02c-.11.03-.21.06-.31.09a.145.145 0 0 0-.07.02c-.1.03-.2.06-.3.1-.02.01-.05.01-.07.02-.09.04-.18.07-.26.1-.04.02-.07.03-.11.05s-.1.04-.16.07a8 8 0 0 0-4.64 5.92H4.71l2.83-14.58h34.75c.19 0 .38-.01.57-.01a.037.037 0 0 1 .03-.01c7.48-.37 12.09-7.58 14.81-14.56h8.02a1.438 1.438 0 0 1 1.35 1.06l3.07 12.19h-5.9a1.766 1.766 0 0 1-1.75-1.72v-6.23a1.345 1.345 0 0 0-2.69 0v6.23a4.442 4.442 0 0 0 4.44 4.37h7.14l5.93 2.26v10.99z"/></svg>