<svg xmlns="http://www.w3.org/2000/svg" width="120" height="120" viewBox="0 0 120 120">
  <defs>
    <style>
      .cls-1 {
        fill: #df77ff;
        fill-rule: evenodd;
      }
    </style>
  </defs>
  <path id="Прямоугольник_скругл._углы_13" data-name="Прямоугольник, скругл. углы 13" class="cls-1" d="M1420,480a60,60,0,1,1-60,60A60,60,0,0,1,1420,480Zm0,5a55,55,0,1,1-55,55A55,55,0,0,1,1420,485Zm-20.52,57.3a2.506,2.506,0,0,1,3.54,0l13.68,13.678a2.5,2.5,0,0,1-3.54,3.535l-13.68-13.677A2.512,2.512,0,0,1,1399.48,542.3Zm13.68,13.678,31.82-31.82a2.5,2.5,0,0,1,3.54,3.536l-31.82,31.819A2.5,2.5,0,0,1,1413.16,555.981Z" transform="translate(-1360 -480)"/>
</svg>
