<svg xmlns="http://www.w3.org/2000/svg" width="65.97" height="80" viewBox="0 0 65.97 80">
  <defs>
    <style>
      .cls-1 {
        fill: #4a90e2;
        fill-rule: evenodd;
      }
    </style>
  </defs>
  <path id="Forma_1" data-name="Forma 1" class="cls-1" d="M1466.94,1666.58a4.7,4.7,0,1,0,4.66,4.69A4.692,4.692,0,0,0,1466.94,1666.58Zm0,6.71a2.015,2.015,0,1,1,2-2.02A2.017,2.017,0,0,1,1466.94,1673.29Zm-28.61-44.84,4.71,4.74a1.325,1.325,0,0,0,.94.39,1.34,1.34,0,0,0,.95-2.29l-2.93-2.94a6.743,6.743,0,0,0,0-7.39l5.85-5.88a6.793,6.793,0,0,0,7.35,0l2.92,2.94a1.336,1.336,0,0,0,1.88-1.9l-4.71-4.74-0.94.95a4.083,4.083,0,0,1-5.66,0l-0.94-.95-9.42,9.48,0.94,0.95a4.044,4.044,0,0,1,0,5.69Zm39.68,9.57a6.76,6.76,0,0,0,0,7.4l-5.85,5.88a6.753,6.753,0,0,0-7.35,0l-2.92-2.94a1.34,1.34,0,0,0-1.89,1.9l4.72,4.74,0.94-.95a4.083,4.083,0,0,1,5.66,0l0.94,0.95,9.42-9.48-0.94-.95a4.044,4.044,0,0,1,0-5.69l0.94-.95-4.71-4.74a1.336,1.336,0,1,0-1.88,1.9Zm5.56,2.36a1.34,1.34,0,1,1-1.34,1.34A1.338,1.338,0,0,1,1483.57,1640.38Zm-15.08,15.17a1.34,1.34,0,1,1-1.34,1.34A1.338,1.338,0,0,1,1468.49,1655.55Zm-16.02-45.12c0.52-.52,1.01-1.37.49-1.89a1.322,1.322,0,0,0-1.89,0c-0.52.52-1.01,1.37-.49,1.89A1.322,1.322,0,0,0,1452.47,1610.43Zm-16.03,12.88a1.345,1.345,0,1,1-1.33,1.34A1.34,1.34,0,0,1,1436.44,1623.31Zm52.49,26.51a11.279,11.279,0,0,0-.55-3.46l4.6-4.63-6.07-6.19a6.028,6.028,0,0,0-3.98-10.53,0.477,0.477,0,1,1-.66-0.67,6.03,6.03,0,0,0-6-6.03,0.478,0.478,0,1,1-.67-0.67,6.026,6.026,0,0,0-6-6.04,0.477,0.477,0,1,1-.66-0.67c0-3.49-2.32-6.03-5.51-6.03a7.089,7.089,0,0,0-4.72,1.91l-6.68-6.8-25.02,24.63,12.32,12.4a5.994,5.994,0,0,0-1.05,3.39,6.061,6.061,0,0,0,2.69,5.03,1.548,1.548,0,0,0,.31.32l14.33,14.37v2.41h-2.67v17.43h34.66v-17.43h-2.67v-4.06A11.332,11.332,0,0,0,1488.93,1649.82Zm-47.98-9.39a3.3,3.3,0,0,1,.9-2.27l0.2-.19a3.37,3.37,0,0,1,1.61-.83,4.2,4.2,0,0,1,.62-0.06h13.33a3.346,3.346,0,0,1,3.33,3.35,3.322,3.322,0,0,1-3.02,3.32l-0.4.04h-13.24A3.348,3.348,0,0,1,1440.95,1640.43Zm11.52-14.83a10.692,10.692,0,0,1,15.07,15.17,10.473,10.473,0,0,1-4.79,2.77,6.588,6.588,0,0,0,.38-0.75c0.01-.02.01-0.03,0.02-0.05a6.259,6.259,0,0,0,.29-0.96c0.02-.09.04-0.17,0.06-0.26a6.39,6.39,0,0,0,.11-1.09,6.024,6.024,0,0,0-6-6.03h-8.19A10.715,10.715,0,0,1,1452.47,1625.6Zm33.79,5.45a3.34,3.34,0,0,1-1.22,2.58l-4.65-4.73a3.3,3.3,0,0,1,2.54-1.21A3.355,3.355,0,0,1,1486.26,1631.05Zm-6.66-6.71a3.371,3.371,0,0,1-1.18,2.55l-4.65-4.74a3.3,3.3,0,0,1,2.5-1.16A3.34,3.34,0,0,1,1479.6,1624.34Zm-6.66-6.7a3.338,3.338,0,0,1-1.15,2.5l-4.65-4.73a3.308,3.308,0,0,1,2.46-1.12A3.348,3.348,0,0,1,1472.94,1617.64Zm-9.51-10.06c1.96,0,2.84,1.69,2.84,3.35a3.329,3.329,0,0,1-1.1,2.46l-4.6-4.68A4.467,4.467,0,0,1,1463.43,1607.58Zm-11.43-3.79,5.2,5.3-0.11.26,6.66,6.71,0.76,0.76,5.9,5.94,0.77,0.77,5.9,5.94,0.76,0.76,6.67,6.71,0.02-.01,4.7,4.79-20.72,20.84h-0.04l-16-16.09h5.14c0.13,0,.26-0.03.4-0.04a13.427,13.427,0,1,0-11.27-12.03h-2.46a5.172,5.172,0,0,0-1.04.11l-0.33.06a6.182,6.182,0,0,0-.73.23,6.284,6.284,0,0,0-.59.27c-0.1.06-.2,0.1-0.3,0.15l-10.49-10.56Zm5.81,54.72c-0.06-.05-0.13-0.09-0.24-0.18l-11.84-11.86h2.97l16,16.09h-6.42v-3.65Zm-2.2,18.8v-12.07h11.23c0.18,0,.37.02,0.55,0.03l1.1,1.1,0.72-.73a7.474,7.474,0,0,1,5.06,7.07v4.6h-18.66Zm29.32,0h-8v-4.6a10.161,10.161,0,0,0-3.28-7.47h11.28v12.07Zm-12.65-14.75,4.97-5,8.92-8.98a8.518,8.518,0,0,1,.09,1.24,8.662,8.662,0,0,1-3.46,6.96l-0.53.4v5.38h-9.99Z" transform="translate(-1427 -1600)"/>
</svg>
