<svg xmlns="http://www.w3.org/2000/svg" width="80" height="53" viewBox="0 0 80 53">
  <defs>
    <style>
      .cls-1 {
        fill: #4a90e2;
        fill-rule: evenodd;
      }
    </style>
  </defs>
  <path class="cls-1" d="M1187.91,1656.4a2.65,2.65,0,1,0,2.7,2.65A2.676,2.676,0,0,0,1187.91,1656.4Zm45.93,0a2.65,2.65,0,1,0,2.69,2.65A2.685,2.685,0,0,0,1233.84,1656.4Zm-4.04-9.28h-2.7a1.325,1.325,0,1,0,0,2.65h2.7A1.325,1.325,0,1,0,1229.8,1647.12Zm18.45-2.78-5.25-2.12-3.37-13.25a3.9,3.9,0,0,0-3.91-3.05h-7.07a61.491,61.491,0,0,0,2.49-10.46,3.11,3.11,0,0,0-.26-1.06,1.537,1.537,0,0,0-1.08-.4h-48.62a1.09,1.09,0,0,0-1.21,1.06l-0.78,4.24h-4.88a1.325,1.325,0,1,0,0,2.65h4.4l-0.49,2.65h-4.85a1.325,1.325,0,1,0,0,2.65h4.37l-0.49,2.65h-4.83a1.325,1.325,0,1,0,0,2.65h4.35l-0.49,2.65h-4.93a1.325,1.325,0,1,0,0,2.65h4.45l-0.68,3.71a0.851,0.851,0,0,0-.05.26l-3.18,16.96a1.007,1.007,0,0,0,.13,1.06,1.224,1.224,0,0,0,1.08.53h6.85a8.1,8.1,0,0,0,15.93,0h29.99a8.1,8.1,0,0,0,15.93,0h5.51a2.676,2.676,0,0,0,2.69-2.65v-10.86A2.6,2.6,0,0,0,1248.25,1644.34Zm-54.82-9.14h-14.39l0.48-2.65h14.99a1.339,1.339,0,0,0,1.35-1.33,1.263,1.263,0,0,0-1.35-1.32H1180l0.48-2.65h14.97a1.325,1.325,0,1,0,0-2.65h-14.5l0.48-2.65h14.97a1.325,1.325,0,1,0,0-2.65h-14.49l0.48-2.65h45.79a61.376,61.376,0,0,1-3.14,11.38c-2.21,5.53-5.88,11.57-11.47,12.38-0.04,0-.08.01-0.11,0.01l-0.24.03-0.37.03c-0.04,0-.09.01-0.13,0.01-0.14,0-.28.01-0.43,0.01h-34.21l0.48-2.65h15.01a1.234,1.234,0,0,0,1.21-1.33A1.263,1.263,0,0,0,1193.43,1635.2Zm-5.52,29.15a5.3,5.3,0,1,1,5.39-5.3A5.359,5.359,0,0,1,1187.91,1664.35Zm45.93,0a5.3,5.3,0,1,1,5.39-5.3A5.367,5.367,0,0,1,1233.84,1664.35Zm13.47-6.63h-5.51a8.068,8.068,0,0,0-7.96-6.62h-0.14a8.051,8.051,0,0,0-7.94,6.62h-29.88a8.017,8.017,0,0,0-4.65-5.91,1.111,1.111,0,0,0-.16-0.07c-0.03-.02-0.07-0.03-0.1-0.05-0.09-.03-0.18-0.07-0.27-0.1a0.637,0.637,0,0,0-.07-0.02c-0.1-.04-0.2-0.07-0.3-0.1a0.142,0.142,0,0,0-.06-0.02l-0.31-.09a0.637,0.637,0,0,1-.07-0.02c-0.1-.02-0.21-0.05-0.31-0.07-0.03,0-.05-0.01-0.08-0.01l-0.3-.06c-0.03,0-.06-0.01-0.09-0.01-0.1-.02-0.2-0.03-0.3-0.04-0.03,0-.07-0.01-0.1-0.01-0.1-.01-0.2-0.02-0.3-0.02a0.34,0.34,0,0,0-.1-0.01c-0.13-.01-0.26-0.01-0.4-0.01s-0.26,0-.4.01a0.375,0.375,0,0,0-.1.01c-0.1,0-.2.01-0.3,0.02-0.03,0-.06.01-0.1,0.01a2.886,2.886,0,0,0-.29.04c-0.03,0-.06.01-0.09,0.01-0.11.02-.21,0.04-0.31,0.06-0.02,0-.05.01-0.08,0.01-0.1.02-.2,0.05-0.3,0.07a0.637,0.637,0,0,0-.07.02c-0.11.03-.21,0.06-0.31,0.09a0.145,0.145,0,0,0-.07.02c-0.1.03-.2,0.06-0.3,0.1-0.02.01-.05,0.01-0.07,0.02-0.09.04-.18,0.07-0.26,0.1-0.04.02-.07,0.03-0.11,0.05s-0.1.04-.16,0.07a8,8,0,0,0-4.64,5.92h-5.24l2.83-14.58h34.75c0.19,0,.38-0.01.57-0.01a0.037,0.037,0,0,1,.03-0.01c7.48-.37,12.09-7.58,14.81-14.56h8.02a1.438,1.438,0,0,1,1.35,1.06l3.07,12.19h-5.9a1.766,1.766,0,0,1-1.75-1.72v-6.23a1.345,1.345,0,0,0-2.69,0v6.23a4.442,4.442,0,0,0,4.44,4.37h7.14l5.93,2.26v10.99h0Z" transform="translate(-1170 -1614)"/>
</svg>
