<svg xmlns="http://www.w3.org/2000/svg" width="60" height="60" viewBox="0 0 60 60" version="1.1"><circle class="cls-1" cx="-30" cy="30" r="30" transform="scale(-1,1)" style="fill:#717aff" /><path style="fill:#ffffff;fill-rule:evenodd" d="m 27.039119,23.003399 c 0.268136,0 0.536007,0.101542 0.740234,0.306641 l 5.886719,5.916015 c 0.01071,0.0099 0.02477,0.01301 0.03516,0.02344 0.206067,0.207813 0.308203,0.478587 0.306641,0.75 0.0016,0.271412 -0.100574,0.544139 -0.306641,0.751953 -0.01038,0.01043 -0.02445,0.01354 -0.03516,0.02344 l -5.886719,5.914062 c -0.408455,0.4102 -1.072014,0.4102 -1.480469,0 -0.409033,-0.4125 -0.409033,-1.077734 0,-1.490234 l 5.173829,-5.199223 -5.173829,-5.199219 c -0.409033,-0.4125 -0.409033,-1.077734 0,-1.490234 0.204228,-0.2051 0.472099,-0.306641 0.740235,-0.306641 z"/></svg>