<?xml version="1.0" encoding="UTF-8" standalone="no"?>
<svg
   xmlns:dc="http://purl.org/dc/elements/1.1/"
   xmlns:cc="http://creativecommons.org/ns#"
   xmlns:rdf="http://www.w3.org/1999/02/22-rdf-syntax-ns#"
   xmlns:svg="http://www.w3.org/2000/svg"
   xmlns="http://www.w3.org/2000/svg"
   xmlns:sodipodi="http://sodipodi.sourceforge.net/DTD/sodipodi-0.dtd"
   xmlns:inkscape="http://www.inkscape.org/namespaces/inkscape"
   width="60"
   height="60"
   viewBox="0 0 60 60"
   version="1.1"
   id="svg4650"
   sodipodi:docname="sl-next.svg"
   inkscape:version="0.92.1 r15371">
  <metadata
     id="metadata4654">
    <rdf:RDF>
      <cc:Work
         rdf:about="">
        <dc:format>image/svg+xml</dc:format>
        <dc:type
           rdf:resource="http://purl.org/dc/dcmitype/StillImage" />
        <dc:title></dc:title>
      </cc:Work>
    </rdf:RDF>
  </metadata>
  <sodipodi:namedview
     pagecolor="#ffffff"
     bordercolor="#666666"
     borderopacity="1"
     objecttolerance="10"
     gridtolerance="10"
     guidetolerance="10"
     inkscape:pageopacity="0"
     inkscape:pageshadow="2"
     inkscape:window-width="2560"
     inkscape:window-height="1361"
     id="namedview4652"
     showgrid="false"
     inkscape:zoom="7.8666667"
     inkscape:cx="12.936439"
     inkscape:cy="15.590417"
     inkscape:window-x="-9"
     inkscape:window-y="-9"
     inkscape:window-maximized="1"
     inkscape:current-layer="svg4650" />
  <defs
     id="defs4646">
    <style
       id="style4644">
      .cls-1 {
        fill: #717aff;
      }

      .cls-2 {
        fill: #fff;
        fill-rule: evenodd;
      }
    </style>
  </defs>
  <circle
     id="Эллипс_3"
     data-name="Эллипс 3"
     class="cls-1"
     cx="-30"
     cy="30"
     r="30"
     transform="scale(-1,1)"
     style="fill:#717aff" />
  <path
     style="fill:#ffffff;fill-rule:evenodd"
     d="m 27.039119,23.003399 c 0.268136,0 0.536007,0.101542 0.740234,0.306641 l 5.886719,5.916015 c 0.01071,0.0099 0.02477,0.01301 0.03516,0.02344 0.206067,0.207813 0.308203,0.478587 0.306641,0.75 0.0016,0.271412 -0.100574,0.544139 -0.306641,0.751953 -0.01038,0.01043 -0.02445,0.01354 -0.03516,0.02344 l -5.886719,5.914062 c -0.408455,0.4102 -1.072014,0.4102 -1.480469,0 -0.409033,-0.4125 -0.409033,-1.077734 0,-1.490234 l 5.173829,-5.199223 -5.173829,-5.199219 c -0.409033,-0.4125 -0.409033,-1.077734 0,-1.490234 0.204228,-0.2051 0.472099,-0.306641 0.740235,-0.306641 z"
     id="Прямоугольник_скругл._углы_12_копия_3"
     inkscape:connector-curvature="0" />
</svg>
