<?xml version="1.0" encoding="UTF-8" standalone="no"?>
<svg
   xmlns:dc="http://purl.org/dc/elements/1.1/"
   xmlns:cc="http://creativecommons.org/ns#"
   xmlns:rdf="http://www.w3.org/1999/02/22-rdf-syntax-ns#"
   xmlns:svg="http://www.w3.org/2000/svg"
   xmlns="http://www.w3.org/2000/svg"
   xmlns:sodipodi="http://sodipodi.sourceforge.net/DTD/sodipodi-0.dtd"
   xmlns:inkscape="http://www.inkscape.org/namespaces/inkscape"
   width="30"
   height="60"
   viewBox="0 0 30 60"
   version="1.1"
   id="svg3686"
   sodipodi:docname="tariff-next.svg"
   inkscape:version="0.92.1 r15371">
  <metadata
     id="metadata3690">
    <rdf:RDF>
      <cc:Work
         rdf:about="">
        <dc:format>image/svg+xml</dc:format>
        <dc:type
           rdf:resource="http://purl.org/dc/dcmitype/StillImage" />
        <dc:title></dc:title>
      </cc:Work>
    </rdf:RDF>
  </metadata>
  <sodipodi:namedview
     pagecolor="#ffffff"
     bordercolor="#666666"
     borderopacity="1"
     objecttolerance="10"
     gridtolerance="10"
     guidetolerance="10"
     inkscape:pageopacity="0"
     inkscape:pageshadow="2"
     inkscape:window-width="2560"
     inkscape:window-height="1361"
     id="namedview3688"
     showgrid="false"
     inkscape:zoom="8"
     inkscape:cx="7.024426"
     inkscape:cy="21.399725"
     inkscape:window-x="-9"
     inkscape:window-y="-9"
     inkscape:window-maximized="1"
     inkscape:current-layer="svg3686" />
  <defs
     id="defs3682">
    <style
       id="style3680">
      .cls-1 {
        fill: #717aff;
      }

      .cls-1, .cls-2 {
        fill-rule: evenodd;
      }

      .cls-2 {
        fill: #fff;
      }
    </style>
  </defs>
  <path
     id="Эллипс_3_копия_3"
     data-name="Эллипс 3 копия 3"
     class="cls-1"
     d="m 30.112996,0 z m -0.123,59.99 a 29.99,29.99 0 0 1 0,-59.98 z"
     inkscape:connector-curvature="0"
     style="fill:#717aff;fill-rule:evenodd" />
  <path
     style="fill:#ffffff;fill-rule:evenodd"
     d="m 17.030965,23.003906 c 0.268136,0 0.536007,0.101541 0.740234,0.306641 l 5.886719,5.916015 c 0.01071,0.0099 0.02477,0.01301 0.03516,0.02344 0.206067,0.207813 0.308203,0.478587 0.306641,0.75 0.0016,0.271413 -0.100574,0.54414 -0.306641,0.751953 -0.01038,0.01043 -0.02445,0.01354 -0.03516,0.02344 l -5.886719,5.914062 c -0.408455,0.4102 -1.072014,0.4102 -1.480469,0 -0.409033,-0.4125 -0.409033,-1.077734 0,-1.490234 L 21.464559,30 16.29073,24.800781 c -0.409033,-0.4125 -0.409033,-1.077734 0,-1.490234 0.204228,-0.2051 0.472099,-0.306641 0.740235,-0.306641 z"
     id="Прямоугольник_скругл._углы_12_копия_3"
     inkscape:connector-curvature="0" />
</svg>
