<svg xmlns="http://www.w3.org/2000/svg" width="80" height="80" viewBox="0 0 80 80"><defs><style>.cls-1{fill:#4a90e2;fill-rule:evenodd}</style></defs><path class="cls-1" d="M58.784 51.73a6.682 6.682 0 0 0-4.937-.8 4.409 4.409 0 0 0-2.668 2 29.62 29.62 0 0 1-3.47 3.87c-3.2 2.13-5.737 1.87-8.406-.8L25.257 41.84a1.193 1.193 0 0 0-.231-.24.3.3 0 0 1-.05-.04l-.884-.89c-2.669-2.8-2.935-5.2-.8-8.4.4-.4 2.269-2.14 3.87-3.47a4.94 4.94 0 0 0 2-2.67 6.853 6.853 0 0 0-.934-4.93c-.266-.4-5.737-9.73-10.808-12.4A6.7 6.7 0 0 0 9.681 10l-3.335 3.33C-.326 20-1.794 27.73 2.209 36.27A29.794 29.794 0 0 0 8.08 44.4l27.354 27.33a27.784 27.784 0 0 0 6.538 5.07A22.3 22.3 0 0 0 52.913 80c4.937 0 9.607-2.13 13.744-6.27l3.335-3.46a6.482 6.482 0 0 0 1.2-7.74C68.525 57.47 59.184 52 58.784 51.73zm9.207 16.8l-3.336 3.34c-6.271 6.26-13.343 7.2-21.482 2.66A25.444 25.444 0 0 1 37.3 70L9.946 42.53a26.784 26.784 0 0 1-5.337-7.46c-3.469-7.47-2.268-14 3.6-19.87l3.335-3.33a3.684 3.684 0 0 1 4.4-.67c4.4 2.27 9.74 11.2 9.74 11.33a3.675 3.675 0 0 1 .667 2.94 1.754 1.754 0 0 1-.934 1.06l-.133.14c-1.068 1.06-3.87 3.33-4.4 4.13a10.818 10.818 0 0 0-1.589 3.39 18.225 18.225 0 0 1-1.881-6.32 1.256 1.256 0 0 0-1.467-1.2 1.319 1.319 0 0 0-1.2 1.46c.934 9.34 8.273 15.34 8.539 15.6L37.43 57.87c.1.1.2.2.307.29.029.04.06.07.093.11a26.387 26.387 0 0 0 15.345 7.06h.133a1.417 1.417 0 0 0 1.335-1.2 1.441 1.441 0 0 0-1.2-1.46 22.8 22.8 0 0 1-7.424-2.1 11.99 11.99 0 0 0 3.154-1.5 26.88 26.88 0 0 0 4.136-4.4v-.14a1.49 1.49 0 0 1 1.068-.93 5.149 5.149 0 0 1 2.935.67S66.386 59.6 68.654 64a3.838 3.838 0 0 1-.663 4.53zM57.317 0a22.655 22.655 0 0 0-22.684 22.67 20.876 20.876 0 0 0 2.535 10.26L34.633 43.6a1.424 1.424 0 0 0 1.334 1.73h.4l9.874-2.93A22.654 22.654 0 1 0 57.317 0zm0 42.53a19.806 19.806 0 0 1-10.275-2.8 1.02 1.02 0 0 0-.667-.13c-.133 0-.267.13-.4.13l-8.273 2.4 2.135-8.93a1.157 1.157 0 0 0-.134-.93 20.079 20.079 0 0 1 17.613-29.6 19.93 19.93 0 1 1 .001 39.86zM47.976 16h18.681a1.335 1.335 0 0 0 0-2.67H47.976a1.335 1.335 0 0 0 0 2.67zm21.349 5.33H45.308a1.335 1.335 0 1 0 0 2.67h24.017a1.335 1.335 0 1 0 0-2.67zm-2.668 8H47.976a1.335 1.335 0 0 0 0 2.67h18.681a1.335 1.335 0 0 0 0-2.67z"/></svg>