<svg xmlns="http://www.w3.org/2000/svg" width="80" height="72" viewBox="0 0 80 72"><defs><style>.cls-1{fill:#4a90e2;fill-rule:evenodd}</style></defs><path id="Forma_1" data-name="Forma 1" class="cls-1" d="M748.723 1604h-77.446a1.274 1.274 0 0 0-1.277 1.27v69.46a1.274 1.274 0 0 0 1.277 1.27h77.446a1.275 1.275 0 0 0 1.277-1.27v-13.55a1.277 1.277 0 0 0-2.553 0v12.28h-74.894v-56.75h74.894v39.38a1.277 1.277 0 0 0 2.553 0v-50.82a1.275 1.275 0 0 0-1.277-1.27zm-76.17 2.54h47.234v7.62h-47.234v-7.62zm49.787 7.62v-7.62h25.107v7.62H722.34zm12.6-5.16a1.355 1.355 0 1 0 1.362 1.35 1.36 1.36 0 0 0-1.366-1.35zm-6.979 0a1.355 1.355 0 1 0 1.362 1.35 1.36 1.36 0 0 0-1.366-1.35zm13.958 0a1.355 1.355 0 1 0 1.362 1.35 1.36 1.36 0 0 0-1.366-1.35zm-46.6 29.47a1.267 1.267 0 0 0 1.064-.89l2.937-9.76a1.276 1.276 0 0 0-2.446-.73l-2.106 7-2.03-3.37a1.277 1.277 0 0 0-2.19 0l-2.031 3.37-2.106-7a1.276 1.276 0 0 0-2.445.73l2.936 9.76a1.268 1.268 0 0 0 1.064.89.86.86 0 0 0 .159.01 1.285 1.285 0 0 0 1.1-.61l2.423-4.03 2.422 4.03a1.265 1.265 0 0 0 1.243.6zm9.812 0a.844.844 0 0 0 .158.01 1.271 1.271 0 0 0 1.1-.62l2.423-4.02 2.422 4.02a1.279 1.279 0 0 0 2.318-.28l2.937-9.76a1.276 1.276 0 0 0-2.446-.73l-2.106 7-2.03-3.38a1.289 1.289 0 0 0-2.191 0l-2.029 3.38-2.106-7a1.276 1.276 0 0 0-2.446.73l2.936 9.76a1.268 1.268 0 0 0 1.054.89zm27.66-12.23a1.271 1.271 0 0 0-1.589.85l-2.106 7-2.03-3.38a1.289 1.289 0 0 0-2.191 0l-2.03 3.38-2.106-7a1.276 1.276 0 0 0-2.446.73l2.937 9.75a1.264 1.264 0 0 0 1.064.9 1.289 1.289 0 0 0 1.254-.61l2.422-4.02 2.423 4.02a1.271 1.271 0 0 0 1.1.62.855.855 0 0 0 .159-.01 1.264 1.264 0 0 0 1.064-.9l2.937-9.75a1.268 1.268 0 0 0-.868-1.58zm-39.517 19.44a1.275 1.275 0 0 0-1.277-1.27h-6.808a1.275 1.275 0 0 0-1.277 1.27v6.78a1.275 1.275 0 0 0 1.277 1.27h6.808a1.275 1.275 0 0 0 1.277-1.27v-6.78zm-2.553 5.51h-4.261v-4.24h4.255v4.24zm1.276 5.08h-6.808a1.275 1.275 0 0 0-1.277 1.27v6.78a1.275 1.275 0 0 0 1.277 1.27h6.808a1.275 1.275 0 0 0 1.277-1.27v-6.78a1.275 1.275 0 0 0-1.283-1.27zm-1.276 6.78h-4.261v-4.24h4.255v4.24zm41.7-15.25h-5.106a1.27 1.27 0 1 0 0 2.54h5.106a1.27 1.27 0 1 0-.002-2.54zm-10.213 0H697.1a1.27 1.27 0 1 0 0 2.54h25.108a1.27 1.27 0 1 0-.002-2.54zm10.213 11.86h-5.106a1.27 1.27 0 1 0 0 2.54h5.106a1.27 1.27 0 1 0-.002-2.54zm-10.213 0H697.1a1.27 1.27 0 1 0 0 2.54h25.108a1.27 1.27 0 1 0-.002-2.54z" transform="translate(-670 -1604)"/></svg>