<svg xmlns="http://www.w3.org/2000/svg" width="30" height="60" viewBox="0 0 30 60" id="svg3686"><defs id="defs3682"><style id="style3680">.cls-1,.cls-2{fill:#717aff;fill-rule:evenodd}.cls-2{fill:#fff}</style></defs><path id="Эллипс_3_копия_3" data-name="Эллипс 3 копия 3" class="cls-1" d="M30.113 0zm-.123 59.99a29.99 29.99 0 0 1 0-59.98z" fill="#717aff" fill-rule="evenodd"/><path d="M17.031 23.004c.268 0 .536.101.74.307l5.887 5.916c.01.01.025.013.035.023.206.208.308.479.307.75.001.271-.1.544-.307.752-.01.01-.024.013-.035.023L17.77 36.69c-.408.41-1.072.41-1.48 0a1.058 1.058 0 0 1 0-1.49l5.175-5.2-5.174-5.2a1.058 1.058 0 0 1 0-1.49 1.04 1.04 0 0 1 .74-.306z" id="Прямоугольник_скругл._углы_12_копия_3" fill="#fff" fill-rule="evenodd"/></svg>